<?xml version="1.0" encoding="utf-8"?>
<svg viewBox="0 0 300 215.43" width="300" height="215.43" xmlns="http://www.w3.org/2000/svg">
  <path d="M 109.134 44.427 L 109.134 0 L 54.567 0 L 54.567 0.047 L 0 53.869 L 0 161.561 L 0.048 161.561 L 54.567 215.43 L 54.567 215.384 L 109.134 215.384 L 109.134 171.003 L 45.02 171.003 L 45.02 44.427 L 109.134 44.427 Z" fill="#000000"/>
  <path d="M 190.914 44.427 L 190.914 0 L 245.433 0 L 245.433 0.047 L 300 53.869 L 300 161.561 L 245.433 215.43 L 245.433 215.384 L 190.914 215.384 L 190.914 171.003 L 255.029 171.003 L 255.029 44.427 L 190.914 44.427 Z" fill="#000000"/>
  <path d="M 193.778 140.361 C 211.996 140.361 226.767 125.756 226.767 107.739 C 226.767 89.721 211.996 75.116 193.778 75.116 C 175.559 75.116 160.79 89.721 160.79 107.739 C 160.79 125.756 175.559 140.361 193.778 140.361 Z" fill="#000000"/>
  <path d="M 106.269 140.316 C 124.489 140.316 139.259 125.709 139.259 107.691 C 139.259 89.675 124.489 75.068 106.269 75.068 C 88.052 75.068 73.281 89.675 73.281 107.691 C 73.281 125.709 88.052 140.316 106.269 140.316 Z" fill="#000000"/>
</svg>